<svg id="SvgjsSvg1001" width="288" height="288" xmlns="http://www.w3.org/2000/svg" version="1.1" xmlns:xlink="http://www.w3.org/1999/xlink" xmlns:svgjs="http://svgjs.com/svgjs"><path id="SvgjsPath1022" d="M 144,0 C 5,0 0,5 0,144 0,283 5,288 144,288 283,288 288,283 288,144 288,5 283,0 144,0 Z" transform="matrix(1,0,0,1,0,0)" fill="#ffd740"></path><defs id="SvgjsDefs1002"></defs><g id="SvgjsG1008" transform="matrix(0.85,0,0,0.85,21.600041198730466,21.60000000000001)"><svg xmlns="http://www.w3.org/2000/svg" width="288" height="288" viewBox="0 0 32 32"><g transform="translate(-401.5 -1213.362)" fill="#000000" class="color000 svgShape"><path fill="none" stroke="#000000" stroke-dashoffset="1.5" stroke-linecap="round" stroke-linejoin="round" stroke-width="1.5" style="isolation:auto;mix-blend-mode:normal" d="m 406.75015,1230.4986 c 0,-0.022 6e-5,-1.7516 1.9e-4,-1.7732 0.0351,-5.8675 4.83445,-10.6132 10.74971,-10.6132 5.91208,0 10.70946,4.7406 10.74966,10.6038 1.7e-4,0.025 2.5e-4,1.7579 2.5e-4,1.7826" color="#000" overflow="visible" class="colorStrokef8b84e svgStroke"></path><path fill="#80e27e" d="m 405.00005,1231.3622 0,5 0,1 c 0,2.77 2.23,5 5,5 l 15,0 c 2.77,0 5,-2.23 5,-5 l 0,-1 0,-5 -5,0 -15,0 -5,0 z" color="#000" overflow="visible" style="isolation:auto;mix-blend-mode:normal" class="color25b39e svgShape"></path><path fill="#bbaeae" style="isolation:auto;mix-blend-mode:normal" d="m 405.00016,1229.3622 24.99979,0 c 0.83099,0 1.49998,0.669 1.49998,1.5 0,0.831 -0.66899,1.5 -1.49998,1.5 l -24.99979,0 c -0.831,0 -1.49999,-0.669 -1.49999,-1.5 0,-0.831 0.66899,-1.5 1.49999,-1.5 z" color="#000" overflow="visible" class="colorf8b84e svgShape"></path><g transform="translate(0 -14.978)" fill="#000000" class="color000 svgShape"><path fill="#4caf50" style="isolation:auto;mix-blend-mode:normal" d="M419.09682 1233.3214l-1.24971.7071 1.62342 2.7562.2641-.966.98562.2588zM416.22366 1233.3214l1.24971.7071-1.62341 2.7562-.2641-.966-.98562.2588z" color="#000" overflow="visible" class="colorf05542 svgShape"></path><path fill="#4caf50" style="isolation:auto;mix-blend-mode:normal" d="M421.50604 1234.8762c.64444-1.0941.64444-2.4421 0-3.5362l-3.18562.884.0613.8841-.0613.884zM413.81443 1234.8762c-.64444-1.0941-.64444-2.4421 0-3.5362l3.18562.884-.0613.8841.0613.884z" color="#000" overflow="visible" class="colorf05542 svgShape"></path><path fill="#323232" fill-opacity=".424" style="isolation:auto;mix-blend-mode:normal" d="m 416.60865,1232.1145 a 1.4622174,1.4333011 0 0 0 -0.41026,0.9931 1.4622174,1.4333011 0 0 0 0.40894,0.9933 l 0.39301,-0.1078 -0.0611,-0.8844 0.0611,-0.8841 -0.39169,-0.1078 z m 2.10449,0 -0.39302,0.1078 0.0611,0.8841 -0.0611,0.8844 0.39302,0.1091 a 1.4622174,1.4333011 0 0 0 0.40894,-0.9932 1.4622174,1.4333011 0 0 0 -0.40894,-0.9932 z" color="#000" overflow="visible" class="color323232 svgShape"></path><ellipse cx="417.66" cy="1233.108" fill="#4caf50" color="#000" overflow="visible" style="isolation:auto;mix-blend-mode:normal" rx="1.082" ry="1.061" class="colorred svgShape"></ellipse><path fill="#323232" fill-opacity=".424" style="isolation:auto;mix-blend-mode:normal" d="M416.99769 1233.9442l.002.048-1.39945.389-.15566.2637 1.85012-.3135.11393-.1933c-.14971-.035-.29003-.1008-.41161-.1938zM418.32341 1233.9443l-.002.048 1.39945.389.15566.2639-1.85012-.3137-.11393-.1932c.14971-.035.29003-.1008.4116-.1938z" color="#000" overflow="visible" class="color323232 svgShape"></path><ellipse style="isolation:auto;mix-blend-mode:normal" cx="417.676" cy="1233.123" fill="#4caf50" color="#000" overflow="visible" rx="1.151" ry="1.128" class="colorf05542 svgShape"></ellipse></g><path fill="#60c5b8" fill-rule="evenodd" stroke="#000000" stroke-linecap="round" stroke-linejoin="round" d="M410.50005 1236.3622l0 3M417.50005 1236.3622l0 3M424.50005 1236.3622l0 3" class="color60c5b8 svgShape colorStroke60c5b8 svgStroke" stroke-width="1.5"></path></g></svg></g></svg>