<svg id="SvgjsSvg1106" width="288" height="288" xmlns="http://www.w3.org/2000/svg" version="1.1" xmlns:xlink="http://www.w3.org/1999/xlink" xmlns:svgjs="http://svgjs.com/svgjs"><path id="SvgjsPath1121" d="M 144,0 C 5,0 0,5 0,144 0,283 5,288 144,288 283,288 288,283 288,144 288,5 283,0 144,0 Z" transform="matrix(1,0,0,1,0,0)" fill="#ffd740"></path><defs id="SvgjsDefs1107"></defs><g id="SvgjsG1108" transform="matrix(0.8,0,0,0.8,28.80058593749999,28.80014648437499)"><svg xmlns="http://www.w3.org/2000/svg" width="288" height="288" viewBox="0 0 48 48"><g transform="translate(636.053 -1939.234)" fill="#000000" class="color000 svgShape"><path fill="#f9f9f9" fill-rule="evenodd" stroke="#000000" stroke-linecap="round" stroke-linejoin="round" stroke-width="2" d="m -599.05204,1940.2371 -6,0 c 0.47658,2.2953 1.61504,4.1304 3,6 1.51355,-1.8034 2.37074,-3.7454 3,-6 z" class="colorf9f9f9 svgShape colorStroke6b7370 svgStroke"></path><path fill="#f9f9f9" fill-rule="evenodd" style="line-height:normal;text-indent:0;text-align:start;text-decoration-line:none;text-decoration-style:solid;text-decoration-color:#000;text-transform:none;block-progression:tb;white-space:normal;isolation:auto;mix-blend-mode:normal;solid-color:#000;solid-opacity:1" d="m -624.05251,1949.2325 2,0 0,22.7715 a 1.0001,1.0001 0 0 0 0,0.4511 l 0,1.7774 c 0,0.098 -0.11674,0.4097 -0.35351,0.6465 -0.23678,0.2368 -0.54886,0.3535 -0.64649,0.3535 -0.0976,0 -0.40971,-0.1167 -0.64648,-0.3535 -0.23678,-0.2368 -0.35352,-0.5485 -0.35352,-0.6465 l 0,-1.8008 a 1.0001,1.0001 0 0 0 0,-0.3945 l 0,-22.8047 z" color="#000" enable-background="accumulate" font-family="sans-serif" font-weight="400" overflow="visible" class="colorf9f9f9 svgShape"></path><path fill="none" stroke="#000000" stroke-linecap="round" stroke-linejoin="round" stroke-width="2" d="M-594.07034 1986.219l.0183-11.9858-15.98161 0-.0183 11.9858M-598.05241 1974.2478l.00024 11.9712M-606.05241 1974.2478l.00024 11.9712M-602.05227 1960.2463l.0001 25.9715" class="colorStroke6b7370 svgStroke"></path><path fill="#6b7370" d="m -601.05225,1956.9821 a 1,1 0 0 1 -1,1 1,1 0 0 1 -1,-1 1,1 0 0 1 1,-1 1,1 0 0 1 1,1 z" class="color6b7370 svgShape"></path><path fill="none" stroke="#000000" stroke-linecap="round" stroke-linejoin="round" stroke-width="2" d="m -602.05227,1946.2395 10e-5,7.4715" class="colorStroke6b7370 svgStroke"></path><g transform="matrix(-1 0 0 1 -1266.678 -52.378)" fill="#000000" class="color000 svgShape"><path fill="#4caf50" fill-rule="evenodd" d="M-641.625 2024.6151l5 .9995 0 9.9983c0 1.2014-1.16875 1.5547-2 1.9995-1.49856.8018-5 .9998-5 .9998 0 0-3.50144-.198-5-.9998-.83125-.4448-2-.7981-2-1.9995l0-9.9983 5-.9995M-639.625 1996.6122l0-4-8 0 0 4 2 4 4 0" class="colorbfc svgShape"></path><path fill="none" stroke="#000000" stroke-linecap="round" stroke-linejoin="round" stroke-width="2" d="M-641.625 2024.6151l5 .9995 0 9.9983c0 1.2014-1.16875 1.5547-2 1.9995-1.49856.8018-5 .9998-5 .9998 0 0-3.50144-.198-5-.9998-.83125-.4448-2-.7981-2-1.9995l0-9.9983 5-.9995c0 0 .0001 1.0543.0001 1.9971 0 .9428 1.05719 2 2 2 .94281 0 2-1.0572 2-2l.0312-22.25M-647.6249 1992.6122l8 0 0 4-2 4-4 0 0 0 0 0 0 0 0 0 0 13M-647.625 1996.6122l2 4" class="colorStroke6b7370 svgStroke"></path></g><path fill="none" stroke="#000000" stroke-linecap="round" stroke-linejoin="round" stroke-width="2" d="m -621.05241,1972.4412 -0.0148,-4.2072 -3.97152,0" class="colorStroke6b7370 svgStroke"></path><path fill="#6b7370" d="m -620.05251,1964.5874 a 1,1 0 0 1 -1,1 1,1 0 0 1 -1,-1 1,1 0 0 1 1,-1 1,1 0 0 1 1,1 z" class="color6b7370 svgShape"></path></g></svg></g></svg>