<svg id="SvgjsSvg1032" width="288" height="288" xmlns="http://www.w3.org/2000/svg" version="1.1" xmlns:xlink="http://www.w3.org/1999/xlink" xmlns:svgjs="http://svgjs.com/svgjs"><defs id="SvgjsDefs1033"></defs><g id="SvgjsG1034" transform="matrix(0.9167,0,0,0.9167,12.006239131164563,11.98486058578493)"><svg xmlns="http://www.w3.org/2000/svg" width="288" height="288" viewBox="0 0 8.467 8.467"><g fill="#586597" transform="translate(293.777 -190.313)" class="color586597 svgShape"><path style="line-height:normal;font-variant-ligatures:normal;font-variant-position:normal;font-variant-caps:normal;font-variant-numeric:normal;font-variant-alternates:normal;font-feature-settings:normal;text-indent:0;text-align:start;text-decoration-line:none;text-decoration-style:solid;text-decoration-color:#000;text-transform:none;text-orientation:mixed;shape-padding:0;isolation:auto;mix-blend-mode:normal" d="m -1259.5469,1091.7852 c -0.1293,0 -0.2543,0.055 -0.3457,0.1464 -1.3617,1.3587 -2.3502,2.9984 -2.957,4.7598 -1.0992,-1.0687 -2.4095,-1.9557 -3.9121,-2.5781 -0.062,-0.026 -0.1284,-0.038 -0.1953,-0.037 -0.2003,0 -0.3804,0.1234 -0.4571,0.3086 -0.6415,1.5438 -0.9261,3.1758 -0.9218,4.7968 -1.0201,-0.2696 -2.0853,-0.4277 -3.1895,-0.4277 -0.2779,0 -0.503,0.2242 -0.5019,0.502 0,3.8952 1.8542,7.5444 4.8574,9.8847 -0.6527,0.1857 -1.2407,0.3879 -1.6836,0.627 -0.3353,0.181 -0.6121,0.3784 -0.8242,0.6172 -0.2121,0.2388 -0.3622,0.5398 -0.3633,0.8691 -10e-5,0.6154 0.4565,1.0646 1.0312,1.4043 0.5747,0.3397 1.3435,0.6142 2.2774,0.8476 1.8677,0.4669 4.3962,0.7481 7.1914,0.7481 2.7952,0 5.3237,-0.2812 7.1914,-0.7481 0.9338,-0.2336 1.7026,-0.5079 2.2773,-0.8476 0.5747,-0.3398 1.0313,-0.7889 1.0313,-1.4043 0,-0.3292 -0.1513,-0.6304 -0.3633,-0.8691 -0.212,-0.2389 -0.489,-0.4363 -0.8242,-0.6172 -0.4429,-0.2392 -1.0309,-0.4413 -1.6836,-0.627 3.0024,-2.3403 4.8598,-5.9901 4.8555,-9.8847 10e-4,-0.2778 -0.2241,-0.5031 -0.502,-0.502 -1.1111,0 -2.1832,0.1587 -3.209,0.4316 0,-1.6223 -0.2778,-3.2557 -0.9199,-4.8007 -0.077,-0.1852 -0.2567,-0.3066 -0.457,-0.3086 -0.067,-8e-4 -0.1334,0.011 -0.1953,0.037 -1.4909,0.6175 -2.7928,1.4953 -3.8868,2.5527 -0.5973,-1.7281 -1.5788,-3.3543 -2.9589,-4.7344 -0.132,-0.1168 -0.2643,-0.1428 -0.3594,-0.1464 z" color="#000" font-family="sans-serif" font-weight="400" overflow="visible" transform="matrix(.26458 0 0 .26458 43.71 -97.294)" white-space="normal" fill="#000000" class="color000 svgShape"></path><path fill="#ffb8bb" style="line-height:normal;font-variant-ligatures:normal;font-variant-position:normal;font-variant-caps:normal;font-variant-numeric:normal;font-variant-alternates:normal;font-feature-settings:normal;text-indent:0;text-align:start;text-decoration-line:none;text-decoration-style:solid;text-decoration-color:#000;text-transform:none;text-orientation:mixed;shape-padding:0;isolation:auto;mix-blend-mode:normal" d="m -1259.5391,1093.0117 c 1.1832,1.3124 2.0419,2.8873 2.5196,4.4961 -1.1766,1.3715 -2.0365,2.9784 -2.5313,4.7012 -0.4916,-1.7117 -1.3448,-3.3081 -2.5097,-4.6738 0.4861,-1.6418 1.355,-3.229 2.5214,-4.5235 z" color="#000" font-family="sans-serif" font-weight="400" overflow="visible" transform="matrix(.26458 0 0 .26458 43.71 -97.294)" white-space="normal" class="colorffb8bb svgShape"></path><path fill="#ffcbce" style="line-height:normal;font-variant-ligatures:normal;font-variant-position:normal;font-variant-caps:normal;font-variant-numeric:normal;font-variant-alternates:normal;font-feature-settings:normal;text-indent:0;text-align:start;text-decoration-line:none;text-decoration-style:solid;text-decoration-color:#000;text-transform:none;text-orientation:mixed;shape-padding:0;isolation:auto;mix-blend-mode:normal" d="m -1266.6777,1095.2344 c 4.2906,2.0399 6.8224,6.4741 6.5996,11.0195 -1.3762,-3.1423 -4.0079,-5.6027 -7.2578,-6.7637 -0.037,-1.4118 0.1846,-2.9103 0.6582,-4.2558 z" color="#000" font-family="sans-serif" font-weight="400" overflow="visible" transform="matrix(.26458 0 0 .26458 43.71 -97.294)" white-space="normal" class="colorffcbce svgShape"></path><path fill="#ffd1cb" style="line-height:normal;font-variant-ligatures:normal;font-variant-position:normal;font-variant-caps:normal;font-variant-numeric:normal;font-variant-alternates:normal;font-feature-settings:normal;text-indent:0;text-align:start;text-decoration-line:none;text-decoration-style:solid;text-decoration-color:#000;text-transform:none;text-orientation:mixed;shape-padding:0;isolation:auto;mix-blend-mode:normal" d="M-1252.4238 1095.2344c.4744 1.3479.6963 2.8495.6582 4.2636-3.2544 1.1683-5.8867 3.6389-7.2559 6.793-.2385-4.5584 2.2953-9.0112 6.5977-11.0566zM-1271.0156 1099.7676c5.4762.2857 10.5329 4.4439 10.9707 10.9824-6.0502-.3039-10.6446-5.0883-10.9707-10.9824z" color="#000" font-family="sans-serif" font-weight="400" overflow="visible" transform="matrix(.26458 0 0 .26458 43.71 -97.294)" white-space="normal" class="colorffd1cb svgShape"></path><path fill="#ffcbce" style="line-height:normal;font-variant-ligatures:normal;font-variant-position:normal;font-variant-caps:normal;font-variant-numeric:normal;font-variant-alternates:normal;font-feature-settings:normal;text-indent:0;text-align:start;text-decoration-line:none;text-decoration-style:solid;text-decoration-color:#000;text-transform:none;text-orientation:mixed;shape-padding:0;isolation:auto;mix-blend-mode:normal" d="m -1248.0684,1099.7676 c -0.3261,5.8941 -4.9205,10.6785 -10.9707,10.9824 0.4379,-6.5385 5.4945,-10.6967 10.9707,-10.9824 z" color="#000" font-family="sans-serif" font-weight="400" overflow="visible" transform="matrix(.26458 0 0 .26458 43.71 -97.294)" white-space="normal" class="colorffcbce svgShape"></path><path fill="#c8e5b6" style="line-height:normal;font-variant-ligatures:normal;font-variant-position:normal;font-variant-caps:normal;font-variant-numeric:normal;font-variant-alternates:normal;font-feature-settings:normal;text-indent:0;text-align:start;text-decoration-line:none;text-decoration-style:solid;text-decoration-color:#000;text-transform:none;text-orientation:mixed;shape-padding:0;isolation:auto;mix-blend-mode:normal" d="m -1266.0977,1109.8906 c 1.8727,1.1635 4.0906,1.861 6.5411,1.8633 0,0 0.01,0 0.012,0 0,0 0.01,0 0.014,0 0,0 0,0 0.01,0 2.4487,0 4.6656,-0.6987 6.5371,-1.8614 0.9892,0.2229 1.7824,0.4886 2.2812,0.7578 0.2661,0.1437 0.4528,0.288 0.5528,0.4004 0.099,0.1115 0.1109,0.17 0.1113,0.2071 0,0.075 -0.1036,0.2846 -0.541,0.5429 -0.4374,0.2585 -1.134,0.5213 -2.0098,0.7403 -1.7516,0.4379 -4.2216,0.7168 -6.9492,0.7168 -2.7277,0 -5.1977,-0.279 -6.9492,-0.7168 -0.8758,-0.2189 -1.5725,-0.4818 -2.0098,-0.7403 -0.4365,-0.2581 -0.5407,-0.4657 -0.541,-0.541 v 0 c 3e-4,-0.038 0.011,-0.095 0.1113,-0.2071 0.1002,-0.1126 0.2865,-0.2566 0.5527,-0.4004 0.4985,-0.2692 1.2911,-0.535 2.2793,-0.7578 z" color="#000" font-family="sans-serif" font-weight="400" overflow="visible" transform="matrix(.26458 0 0 .26458 43.71 -97.294)" white-space="normal" class="colorc8e5b6 svgShape"></path></g></svg></g></svg>