<svg id="SvgjsSvg1090" width="288" height="288" xmlns="http://www.w3.org/2000/svg" version="1.1" xmlns:xlink="http://www.w3.org/1999/xlink" xmlns:svgjs="http://svgjs.com/svgjs"><path id="SvgjsPath1105" d="M 144,0 C 5,0 0,5 0,144 0,283 5,288 144,288 283,288 288,283 288,144 288,5 283,0 144,0 Z" transform="matrix(0.9999999999999999,0,0,0.9999999999999999,2.842170943040401e-14,2.842170943040401e-14)" fill="#ffd740"></path><defs id="SvgjsDefs1091"></defs><g id="SvgjsG1092" transform="matrix(0.8399999999999999,0,0,0.8399999999999999,23.03946166992189,23.040571289062527)"><svg xmlns="http://www.w3.org/2000/svg" width="288" height="288" viewBox="0 0 32 32"><g fill="#545773" transform="translate(-251.518 -910.631)" class="color545773 svgShape"><path fill="#f6f1d6" fill-rule="evenodd" d="m -428.77539,-109.65625 -0.15234,0.2832 c -0.49384,0.91402 -1.05458,1.77094 -1.56836,2.40235 l -0.66211,0.81445 6.8789,0 -0.56054,-0.98047 c -0.83018,-1.45271 -2.00047,-2.3928 -3.61524,-2.49805 z" color="#000" enable-background="accumulate" font-family="sans-serif" font-weight="400" overflow="visible" transform="translate(705.172 1041.538)" style="line-height:normal;text-indent:0;text-align:start;text-decoration-line:none;text-decoration-style:solid;text-decoration-color:#000;text-transform:none;white-space:normal;isolation:auto;mix-blend-mode:normal;solid-color:#000;solid-opacity:1" class="colorf6f1d6 svgShape"></path><path fill="#f6f1d6" fill-rule="evenodd" d="m 256.50008,924.38175 0.17383,0 a 0.5000597,0.50002838 0 0 0 0.0234,0 c 1.86505,-0.0875 3.63097,0.97058 4.64063,2.58594 l 0.70117,1.11914 c -0.0259,0.26074 -0.041,0.52529 -0.041,0.79297 l 0,0.5 c 0,2.33474 1.24497,4.36528 3.10156,5.50195 l -2.09961,0 c -3.59584,0 -6.5,-2.90439 -6.5,-6.5 z" color="#000" enable-background="accumulate" font-family="sans-serif" font-weight="400" overflow="visible" style="line-height:normal;text-indent:0;text-align:start;text-decoration-line:none;text-decoration-style:solid;text-decoration-color:#000;text-transform:none;white-space:normal;isolation:auto;mix-blend-mode:normal;solid-color:#000;solid-opacity:1" class="colorf6f1d6 svgShape"></path><path fill="#4caf50" fill-rule="evenodd" d="m -435.17578,-120.1582 c -0.008,0 -0.0139,0.004 -0.0215,0.004 l 0,-0.002 c -0.0413,0.004 -0.082,0.0132 -0.12109,0.0273 -4.07041,0.0818 -7.35547,3.38082 -7.35547,7.47071 l 0,0.5 c 0,3.31252 2.68746,6 6,6 1.45924,-0.008 2.60702,-0.0223 3.89453,0.002 l 1.33985,0 c 0.17183,4.9e-4 0.33187,-0.0873 0.42383,-0.23242 0.002,-0.003 0.004,-0.006 0.006,-0.01 0.64575,-0.63894 1.4857,-1.83813 2.16797,-3.13086 0.68498,-1.29788 1.19629,-2.63695 1.16797,-3.63086 -0.065,-2.28538 -1.12262,-4.08121 -2.57031,-5.27929 -1.3952,-1.15465 -3.14162,-1.72306 -4.73242,-1.69141 -10e-4,3e-5 -0.003,-0.002 -0.004,-0.002 -0.031,-0.0109 -0.0631,-0.0188 -0.0957,-0.0234 l 0,0.0117 c -0.0311,10e-4 -0.0648,-0.0153 -0.0957,-0.0137 -6.5e-4,0 -10e-4,0 -0.002,0 z" color="#000" enable-background="accumulate" font-family="sans-serif" font-weight="400" overflow="visible" transform="translate(705.172 1041.538)" style="line-height:normal;text-indent:0;text-align:start;text-decoration-line:none;text-decoration-style:solid;text-decoration-color:#000;text-transform:none;white-space:normal;isolation:auto;mix-blend-mode:normal;solid-color:#000;solid-opacity:1" class="colord69781 svgShape"></path><path fill-rule="evenodd" d="M269.97887 920.8832c-5.23483.11879-8.10145 4.50211-7.97867 8.01525l0 .48238c0 3.51935 2.82319 6.36043 6.31848 6.46262a.5000597.50002838 0 00.18165.037c3.584 0 6.50012-2.91597 6.50012-6.49972l0-.49998c0-2.75538-2.24454-4.99978-5.0001-4.99978a.5000597.50002838 0 00-.0176 0c-1.69356.06-2.97626.79997-3.79695 1.77922-.82067.97916-1.2023 2.17541-1.18556 3.22636l0 .49218c0 1.92702 1.57296 3.49985 3.50007 3.49985a.5000597.50002838 0 00.18359-.037c1.83759-.0993 3.31647-1.59873 3.31647-3.46075l0-.49998c0-1.09855-.90135-1.99991-2.00004-1.99991a.5000597.50002838 0 00-.0156 0c-.6841.022-1.22234.34499-1.54495.74797-.32261.40308-.46557.85816-.43945 1.28124a.50093948.5009081 0 101.00002-.061c-.007-.112.0571-.39129.2207-.59568.16199-.20239.39053-.35538.78712-.37108.55372.01.99221.44108.99221.99605l0 .49998c0 1.38664-1.11338 2.49989-2.50004 2.49989-1.38668 0-2.50005-1.11325-2.50005-2.49989l0-.49998a.5000597.50002838 0 000-.01c-.0126-.78836.29459-1.78482.95119-2.56818.65517-.78177 1.63678-1.36955 3.05865-1.42184 2.21029.01 3.99031 1.78632 3.99031 3.99782l0 .49998c0 3.04337-2.45657 5.49976-5.5001 5.49976-3.04355 0-5.50011-2.45639-5.50011-5.49976l0-.49998a.5000597.50002838 0 000-.017c-.10275-2.93997 2.32116-6.8811 7.01185-6.98219a.5000597.50002838 0 00.0137 0c1.49415-.078 3.23107.48578 4.58407 1.60543 1.353 1.11965 2.32976 2.76898 2.39067 4.90999.0509 1.78852-.67198 3.40115-1.86136 4.5779a.5000597.50002838 0 10.70314.71087c1.37165-1.35714 2.2173-3.24246 2.15824-5.31807-.0692-2.4338-1.20584-4.37071-2.752-5.65016-1.54507-1.27864-3.49131-1.92632-5.26964-1.83392zM256.07821 920.13323l-.86916.49608 2.00004 3.49985.86916-.49608zM260.19547 919.65865l-2.00003 3.99983.89454.44718 2.00004-3.99983z" color="#000" enable-background="accumulate" font-family="sans-serif" font-weight="400" overflow="visible" style="line-height:normal;text-indent:0;text-align:start;text-decoration-line:none;text-decoration-style:solid;text-decoration-color:#000;text-transform:none;white-space:normal;isolation:auto;mix-blend-mode:normal;solid-color:#000;solid-opacity:1" fill="#000000" class="color000 svgShape"></path><path d="m 255.14265,917.88133 c -0.82252,0 -1.50003,0.67747 -1.50003,1.49993 0,0.82247 0.67751,1.49994 1.50003,1.49994 0.8225,0 1.50003,-0.67747 1.50003,-1.49994 0,-0.82246 -0.67753,-1.49993 -1.50003,-1.49993 z" color="#000" enable-background="accumulate" font-family="sans-serif" font-weight="400" overflow="visible" style="line-height:normal;text-indent:0;text-align:start;text-decoration-line:none;text-decoration-style:solid;text-decoration-color:#000;text-transform:none;white-space:normal;isolation:auto;mix-blend-mode:normal;solid-color:#000;solid-opacity:1" fill="#000000" class="color000 svgShape"></path><path fill="#a0a398" d="m 255.14265,918.88129 c 0.28207,0 0.50001,0.21789 0.50001,0.49997 0,0.28209 -0.21794,0.49998 -0.50001,0.49998 -0.28209,0 -0.50001,-0.21789 -0.50001,-0.49998 0,-0.28208 0.21792,-0.49997 0.50001,-0.49997 z" color="#000" enable-background="accumulate" font-family="sans-serif" font-weight="400" overflow="visible" style="line-height:normal;text-indent:0;text-align:start;text-decoration-line:none;text-decoration-style:solid;text-decoration-color:#000;text-transform:none;white-space:normal;isolation:auto;mix-blend-mode:normal;solid-color:#000;solid-opacity:1" class="colora0a398 svgShape"></path><path d="m 261.14276,917.38135 c -0.82251,0 -1.50003,0.67747 -1.50003,1.49994 0,0.82246 0.67752,1.49993 1.50003,1.49993 0.82251,0 1.50003,-0.67747 1.50003,-1.49993 0,-0.82247 -0.67752,-1.49994 -1.50003,-1.49994 z" color="#000" enable-background="accumulate" font-family="sans-serif" font-weight="400" overflow="visible" style="line-height:normal;text-indent:0;text-align:start;text-decoration-line:none;text-decoration-style:solid;text-decoration-color:#000;text-transform:none;white-space:normal;isolation:auto;mix-blend-mode:normal;solid-color:#000;solid-opacity:1" fill="#000000" class="color000 svgShape"></path><path fill="#a0a398" d="m 261.14276,918.38131 c 0.28208,0 0.50001,0.21789 0.50001,0.49998 0,0.28208 -0.21793,0.49997 -0.50001,0.49997 -0.28208,0 -0.50001,-0.21789 -0.50001,-0.49997 0,-0.28209 0.21793,-0.49998 0.50001,-0.49998 z" color="#000" enable-background="accumulate" font-family="sans-serif" font-weight="400" overflow="visible" style="line-height:normal;text-indent:0;text-align:start;text-decoration-line:none;text-decoration-style:solid;text-decoration-color:#000;text-transform:none;white-space:normal;isolation:auto;mix-blend-mode:normal;solid-color:#000;solid-opacity:1" class="colora0a398 svgShape"></path><path fill-rule="evenodd" style="line-height:normal;text-indent:0;text-align:start;text-decoration-line:none;text-decoration-style:solid;text-decoration-color:#000;text-transform:none;white-space:normal;isolation:auto;mix-blend-mode:normal;solid-color:#000;solid-opacity:1" d="m 256.00012,923.38189 a 0.5000597,0.50002838 0 0 0 -0.50001,0.49998 l 0,4.49981 c 0,4.13603 3.36386,7.49967 7.50015,7.49967 l 5.50011,0 3.89265,0 8.50017,0 a 0.5000597,0.50002838 0 0 0 0.43359,-0.74802 l -0.56055,-0.98042 c -0.94671,-1.65663 -2.4002,-2.77136 -4.37313,-2.77136 l 0,0.99995 c 1.6157,0 2.67216,0.8085 3.50593,2.26748 l 0.13281,0.23241 -7.63882,0 -3.89265,0 -5.50011,0 c -3.59584,0 -6.50013,-2.9041 -6.50013,-6.49971 l 0,-3.99983 0.17384,0 a 0.5000597,0.50002838 0 0 0 0.0234,0 c 1.86505,-0.0875 3.63105,0.97047 4.64071,2.58583 l 0.73829,1.17963 0.84768,-0.53123 -0.7383,-1.17963 c -1.18324,-1.89307 -3.26731,-3.16092 -5.53526,-3.05456 z" color="#000" enable-background="accumulate" font-family="sans-serif" font-weight="400" overflow="visible" fill="#000000" class="color000 svgShape"></path><path d="M258.50013 926.88184c0 .27613-.22386.49998-.50001.49998-.27614 0-.50001-.22385-.50001-.49998 0-.27614.22387-.49998.50001-.49998.27615 0 .50001.22384.50001.49998zM260.00016 926.88184c0 .27613-.22385.49998-.50001.49998-.27614 0-.50001-.22385-.50001-.49998 0-.27613.22387-.49998.50001-.49998.27616 0 .50001.22385.50001.49998z" fill="#000000" class="color000 svgShape"></path></g></svg></g></svg>