<svg id="SvgjsSvg1041" width="288" height="288" xmlns="http://www.w3.org/2000/svg" version="1.1" xmlns:xlink="http://www.w3.org/1999/xlink" xmlns:svgjs="http://svgjs.com/svgjs"><path id="SvgjsPath1057" d="M 144,0 C 5,0 0,5 0,144 0,283 5,288 144,288 283,288 288,283 288,144 288,5 283,0 144,0 Z" fill="#ffd740" transform="matrix(1,0,0,1,0,0)"></path><defs id="SvgjsDefs1042"></defs><g id="SvgjsG1043" transform="matrix(0.83,0,0,0.83,24.481380886435517,24.478568439483652)"><svg xmlns="http://www.w3.org/2000/svg" data-name="Layer 1" viewBox="0 0 512 512" width="288" height="288"><rect width="208.31" height="243.03" x="214.77" y="179.19" fill="#4caf50" class="colora2e62e svgShape"></rect><path fill="#60bc63" d="M393.08,179.19v49.72A178.31,178.31,0,0,1,214.77,407.22h0v15H423.08v-243Z" class="color97d729 svgShape"></path><polygon fill="#60bc63" points="214.77 376.55 85.73 216.15 108.15 193.76 214.77 302.31 214.77 376.55" class="color97d729 svgShape"></polygon><polygon fill="#918291" points="108.15 193.76 85.73 216.15 29.77 206.7 98.69 137.87 108.15 193.76" class="color918291 svgShape"></polygon><path fill="#7a6d79" d="M80.24,119.44,11.32,188.27a13,13,0,0,0,0,18.43h0a13.07,13.07,0,0,0,18.45,0l68.92-68.83a13,13,0,0,0,0-18.43h0A13.07,13.07,0,0,0,80.24,119.44Z" class="color7a6d79 svgShape"></path><path fill="#a79ba7" d="M423 422.37H214.69A14.59 14.59 0 0 0 200.09 437h0a14.6 14.6 0 0 0 14.6 14.59H423A14.59 14.59 0 0 0 437.6 437h0A14.59 14.59 0 0 0 423 422.37zM423.35 150H215.05a14.58 14.58 0 0 0-14.6 14.58h0a14.59 14.59 0 0 0 14.6 14.58h208.3A14.6 14.6 0 0 0 438 164.62h0A14.59 14.59 0 0 0 423.35 150z" class="colora79ba7 svgShape"></path><path fill="#918291" d="M319.2,60.46a14.59,14.59,0,0,0-14.58,14.59V238.77a14.59,14.59,0,0,0,14.58,14.6h0a14.59,14.59,0,0,0,14.58-14.6V75.05A14.59,14.59,0,0,0,319.2,60.46Z" class="color918291 svgShape"></path><circle cx="318.93" cy="244.54" r="29" fill="#7a6d79" class="color7a6d79 svgShape"></circle><path fill="#685e68" d="M330.51,218a29,29,0,0,1-38.17,38.17A29,29,0,1,0,330.51,218Z" class="color685e68 svgShape"></path><path d="M494.88,237.21l-1-1.19a71.49,71.49,0,0,0-63.3-24.87V185.48a22.11,22.11,0,0,0,14.88-20.86,22.11,22.11,0,0,0-22.11-22.08H341.28V75.05a22.08,22.08,0,1,0-44.16,0v67.49H215.05a22.08,22.08,0,0,0-15.63,37.69,21.86,21.86,0,0,0,7.85,5.05V284l-92.12-93.79-8.51-50.26A20.51,20.51,0,0,0,104,114.14a20.58,20.58,0,0,0-29,0L6,183a20.54,20.54,0,0,0,25.79,31.69l49.86,8.42,125.6,156.12v37A22.08,22.08,0,0,0,214.69,459H423a22.08,22.08,0,0,0,7.58-42.83V395l60.34-60.35a71.94,71.94,0,0,0,4-97.46ZM24.47,201.39a5.56,5.56,0,0,1-7.85,0,5.52,5.52,0,0,1,0-7.81l68.92-68.83a5.56,5.56,0,0,1,7.85,0,5.52,5.52,0,0,1,0,7.81Zm20.89.33,48.36-48.29,6.39,37.76L83.17,208.11ZM207.27,355.26,95.8,216.7l12.3-12.29,99.17,101ZM312.12,75.05a7.08,7.08,0,1,1,14.16,0V208.78a36.72,36.72,0,0,0-14.16-.1Zm6.81,148a21.5,21.5,0,1,1-21.5,21.5A21.52,21.52,0,0,1,318.93,223Zm0,58a36.48,36.48,0,0,0,22.35-65.33v-29h74.3V414.87H222.27V186.7h74.85v28.58A36.5,36.5,0,0,0,318.93,281ZM215.05,157.54h82.07V171.7H215.05a7.08,7.08,0,1,1,0-14.16ZM423,444H214.69a7.09,7.09,0,1,1,0-14.17H423A7.09,7.09,0,1,1,423,444Zm.35-272.34H341.28V157.54h82.07a7.08,7.08,0,1,1,0,14.16ZM497,286.11a56.83,56.83,0,0,1-16.63,38l-49.74,49.74V226.28a56.61,56.61,0,0,1,51.86,19.45l1,1.19A56.76,56.76,0,0,1,497,286.11Z" fill="#000000" class="color000 svgShape"></path></svg></g></svg>